FFmpeg version SVN-r25716, Copyright (c) 2000-2010 the FFmpeg developers  built on Nov 10 2010 12:23:18 with gcc 4.1.2 20080704 (Red Hat 4.1.2-48)  configuration: --enable-libmp3lame --enable-shared --disable-mmx --arch=x86_64  libavutil     50.33. 0 / 50.33. 0  libavcore      0.12. 1 /  0.12. 1  libavcodec    52.94. 4 / 52.94. 4  libavformat   52.84. 0 / 52.84. 0  libavdevice   52. 2. 2 / 52. 2. 2  libavfilter    1.59. 0 /  1.59. 0  libswscale     0.12. 0 /  0.12. 0Input #0, avi, from '/RAID10/data/converted_video_files/47577.avi':  Duration: 00:00:01.50, start: 0.000000, bitrate: 281493 kb/s    Stream #0.0: Video: msvideo1, rgb555le, 1024x1024, 30 tbr, 30 tbn, 30 tbc[buffer @ 0xdf2ba0] w:1024 h:1024 pixfmt:rgb555le[ffsink @ 0xe2cf40] auto-inserting filter 'auto-inserted scaler 0' between the filter 'src' and the filter 'out'[scale @ 0xe2d240] w:1024 h:1024 fmt:rgb555le -> w:1024 h:1024 fmt:yuv420p flags:0x4Output #0, flv, to '/RAID10/data/converted_video_files/47577.flv':  Metadata:    encoder         : Lavf52.84.0    Stream #0.0: Video: flv, yuv420p, 1024x1024, q=2-31, 600 kb/s, 1k tbn, 24 tbcStream mapping:  Stream #0.0 -> #0.0Press [q] to stop encodingframe=    8 fps=  0 q=11.5 size=     353kB time=0.33 bitrate=8692.3kbits/s dup=0 drop=1    frame=   16 fps= 14 q=30.0 size=     391kB time=0.67 bitrate=4800.9kbits/s dup=0 drop=4    frame=   25 fps= 15 q=22.2 size=     426kB time=1.04 bitrate=3348.9kbits/s dup=0 drop=6    frame=   35 fps= 16 q=28.2 size=     435kB time=1.46 bitrate=2442.6kbits/s dup=0 drop=8    frame=   36 fps= 16 q=27.3 Lsize=     436kB time=1.50 bitrate=2381.3kbits/s dup=0 drop=9    video:435kB audio:0kB global headers:0kB muxing overhead 0.176345%